<svg width="200" height="59" viewBox="0 0 200 59" fill="none" xmlns="http://www.w3.org/2000/svg">
<path d="M192.495 58.3271H8.23233C4.18039 58.3271 0.861816 55.0915 0.861816 51.1409V8.0234C0.861816 4.07276 4.18039 0.837148 8.23233 0.837148H192.495C196.547 0.837148 199.866 4.07276 199.866 8.0234V51.1409C199.866 55.0915 196.547 58.3271 192.495 58.3271Z" fill="black"/>
<path d="M192.495 1.98874C195.908 1.98874 198.685 4.69616 198.685 8.0234V51.1409C198.685 54.4681 195.908 57.1756 192.495 57.1756H8.23233C4.81978 57.1756 2.04294 54.4681 2.04294 51.1409V8.0234C2.04294 4.69616 4.81978 1.98874 8.23233 1.98874H192.495ZM192.495 0.837148H8.23233C4.18039 0.837148 0.861816 4.07276 0.861816 8.0234V51.1409C0.861816 55.0915 4.18039 58.3271 8.23233 58.3271H192.495C196.547 58.3271 199.866 55.0915 199.866 51.1409V8.0234C199.866 4.07276 196.547 0.837148 192.495 0.837148Z" fill="#A6A6A6"/>
<path d="M15.1387 11.6721C14.7057 12.1141 14.4551 12.8022 14.4551 13.6933V45.478C14.4551 46.3691 14.7057 47.0572 15.1387 47.4992L15.2456 47.5962L33.5134 29.7923V29.3719L15.2456 11.5679L15.1387 11.6721Z" fill="white"/>
<path d="M41.8071 35.73L35.7246 29.7923V29.3719L41.8145 23.4343L41.9508 23.5116L49.1629 27.5125C51.2211 28.6479 51.2211 30.5164 49.1629 31.659L41.9508 35.6527L41.8071 35.73V35.73Z" fill="white"/>
<path d="M40.8451 36.7582L34.6188 30.6876L16.2441 48.6047C16.9278 49.3054 18.0425 49.3898 19.3103 48.6891L40.8451 36.7582" fill="white"/>
<path d="M40.8451 22.406L19.3103 10.475C18.0425 9.78154 16.9278 9.86597 16.2441 10.5666L34.6188 28.4766L40.8451 22.406Z" fill="white"/>
<path d="M70.7602 15.5597C70.7602 16.7598 70.3917 17.721 69.6657 18.4378C68.831 19.2876 67.7439 19.7152 66.4117 19.7152C65.1384 19.7152 64.0512 19.2804 63.1594 18.4234C62.2657 17.5539 61.8198 16.4867 61.8198 15.2094C61.8198 13.932 62.2657 12.8649 63.1594 12.0025C64.0512 11.1384 65.1384 10.7036 66.4117 10.7036C67.0455 10.7036 67.6499 10.8312 68.2266 11.0683C68.8015 11.3073 69.2696 11.6306 69.6086 12.0295L68.8384 12.7876C68.2469 12.1067 67.4417 11.7708 66.4117 11.7708C65.483 11.7708 64.6777 12.087 63.9941 12.7247C63.3179 13.3643 62.9788 14.1925 62.9788 15.2094C62.9788 16.2262 63.3179 17.0616 63.9941 17.7012C64.6777 18.3318 65.483 18.6552 66.4117 18.6552C67.3975 18.6552 68.2266 18.3318 68.8808 17.694C69.3119 17.2718 69.557 16.6898 69.6215 15.946H66.4117V14.9076H70.6939C70.7455 15.1321 70.7602 15.3495 70.7602 15.5597V15.5597Z" fill="white" stroke="white" stroke-width="0.16" stroke-miterlimit="10"/>
<path d="M77.5538 11.9595H73.5313V14.6903H77.1576V15.7287H73.5313V18.4595H77.5538V19.5177H72.3926V10.9014H77.5538V11.9595Z" fill="white" stroke="white" stroke-width="0.16" stroke-miterlimit="10"/>
<path d="M82.3487 19.5177H81.21V11.9595H78.7427V10.9014H84.8178V11.9595H82.3487V19.5177V19.5177Z" fill="white" stroke="white" stroke-width="0.16" stroke-miterlimit="10"/>
<path d="M89.2144 19.5177V10.9014H90.3513V19.5177H89.2144Z" fill="white" stroke="white" stroke-width="0.16" stroke-miterlimit="10"/>
<path d="M95.3907 19.5177H94.2611V11.9595H91.7847V10.9014H97.8672V11.9595H95.3907V19.5177Z" fill="white" stroke="white" stroke-width="0.16" stroke-miterlimit="10"/>
<path d="M109.369 18.4091C108.497 19.2804 107.418 19.7152 106.13 19.7152C104.834 19.7152 103.754 19.2804 102.883 18.4091C102.013 17.5395 101.58 16.4724 101.58 15.2094C101.58 13.9464 102.013 12.8792 102.883 12.0097C103.754 11.1384 104.834 10.7036 106.13 10.7036C107.41 10.7036 108.49 11.1384 109.362 12.0169C110.239 12.8936 110.672 13.9536 110.672 15.2094C110.672 16.4724 110.239 17.5395 109.369 18.4091ZM103.725 17.6868C104.381 18.3318 105.179 18.6552 106.13 18.6552C107.073 18.6552 107.878 18.3318 108.527 17.6868C109.181 17.0419 109.513 16.2137 109.513 15.2094C109.513 14.2051 109.181 13.3769 108.527 12.7319C107.878 12.087 107.073 11.7636 106.13 11.7636C105.179 11.7636 104.381 12.087 103.725 12.7319C103.071 13.3769 102.739 14.2051 102.739 15.2094C102.739 16.2137 103.071 17.0419 103.725 17.6868V17.6868Z" fill="white" stroke="white" stroke-width="0.16" stroke-miterlimit="10"/>
<path d="M112.269 19.5177V10.9014H113.651L117.948 17.6025H117.998L117.948 15.9461V10.9014H119.085V19.5177H117.898L113.399 12.4859H113.349L113.399 14.1495V19.5177H112.269V19.5177Z" fill="white" stroke="white" stroke-width="0.16" stroke-miterlimit="10"/>
<path d="M101.3 32.1008C97.8374 32.1008 95.009 34.6699 95.009 38.2145C95.009 41.7304 97.8374 44.3264 101.3 44.3264C104.769 44.3264 107.598 41.7304 107.598 38.2145C107.598 34.6699 104.769 32.1008 101.3 32.1008ZM101.3 41.9191C99.3999 41.9191 97.7655 40.3902 97.7655 38.2145C97.7655 36.0102 99.3999 34.5082 101.3 34.5082C103.199 34.5082 104.841 36.0102 104.841 38.2145C104.841 40.3902 103.199 41.9191 101.3 41.9191V41.9191ZM87.5739 32.1008C84.1043 32.1008 81.2832 34.6699 81.2832 38.2145C81.2832 41.7304 84.1043 44.3264 87.5739 44.3264C91.0418 44.3264 93.8647 41.7304 93.8647 38.2145C93.8647 34.6699 91.0418 32.1008 87.5739 32.1008ZM87.5739 41.9191C85.6724 41.9191 84.0324 40.3902 84.0324 38.2145C84.0324 36.0102 85.6724 34.5082 87.5739 34.5082C89.4737 34.5082 91.1081 36.0102 91.1081 38.2145C91.1081 40.3902 89.4737 41.9191 87.5739 41.9191ZM71.2409 33.9747V36.5725H77.6035C77.4174 38.0241 76.9199 39.0913 76.157 39.835C75.2283 40.7333 73.7819 41.7304 71.2409 41.7304C67.3253 41.7304 64.2592 38.6493 64.2592 34.8316C64.2592 31.0139 67.3253 27.9328 71.2409 27.9328C73.3581 27.9328 74.8985 28.7395 76.0354 29.7851L77.9131 27.9544C76.3229 26.474 74.2075 25.3368 71.2409 25.3368C65.8715 25.3368 61.3589 29.5964 61.3589 34.8316C61.3589 40.0668 65.8715 44.3264 71.2409 44.3264C74.143 44.3264 76.3229 43.3994 78.0365 41.6603C79.7925 39.9482 80.3398 37.5408 80.3398 35.5969C80.3398 34.9933 80.2882 34.4382 80.1961 33.9747H71.2409ZM138.029 35.9886C137.511 34.6214 135.913 32.1008 132.659 32.1008C129.435 32.1008 126.75 34.5783 126.75 38.2145C126.75 41.6388 129.407 44.3264 132.969 44.3264C135.849 44.3264 137.511 42.6143 138.195 41.6172L136.057 40.2285C135.344 41.2453 134.373 41.9191 132.969 41.9191C131.574 41.9191 130.573 41.2956 129.932 40.0668L138.318 36.6839L138.029 35.9886V35.9886ZM129.479 38.0241C129.407 35.667 131.357 34.4597 132.753 34.4597C133.848 34.4597 134.777 34.9933 135.086 35.7568L129.479 38.0241V38.0241ZM122.663 43.9546H125.42V25.9889H122.663V43.9546ZM118.149 33.4626H118.057C117.437 32.7476 116.256 32.1008 114.76 32.1008C111.62 32.1008 108.749 34.7885 108.749 38.2343C108.749 41.6603 111.62 44.3264 114.76 44.3264C116.256 44.3264 117.437 43.6743 118.057 42.9377H118.149V43.8144C118.149 46.1518 116.868 47.4075 114.802 47.4075C113.118 47.4075 112.074 46.2218 111.642 45.2247L109.245 46.2003C109.936 47.8208 111.766 49.8149 114.802 49.8149C118.034 49.8149 120.762 47.9609 120.762 43.4497V32.4727H118.149V33.4626V33.4626ZM114.996 41.9191C113.096 41.9191 111.506 40.3686 111.506 38.2343C111.506 36.0802 113.096 34.5082 114.996 34.5082C116.868 34.5082 118.344 36.0802 118.344 38.2343C118.344 40.3686 116.868 41.9191 114.996 41.9191V41.9191ZM150.935 25.9889H144.342V43.9546H147.091V37.1474H150.935C153.988 37.1474 156.982 34.9933 156.982 31.5673C156.982 28.143 153.98 25.9889 150.935 25.9889V25.9889ZM151.006 34.6484H147.091V28.488H151.006C153.059 28.488 154.231 30.1498 154.231 31.5673C154.231 32.9578 153.059 34.6484 151.006 34.6484ZM168.001 32.0667C166.015 32.0667 163.949 32.9219 163.1 34.8172L165.539 35.8143C166.064 34.8172 167.03 34.4939 168.051 34.4939C169.477 34.4939 170.923 35.3293 170.945 36.8042V36.9929C170.448 36.7126 169.383 36.2976 168.073 36.2976C165.445 36.2976 162.768 37.7079 162.768 40.3399C162.768 42.7473 164.92 44.2977 167.339 44.2977C169.189 44.2977 170.21 43.4839 170.851 42.5371H170.945V43.9258H173.601V37.0342C173.601 33.8489 171.161 32.0667 168.001 32.0667ZM167.669 41.9119C166.77 41.9119 165.517 41.4771 165.517 40.3902C165.517 38.9996 167.08 38.4661 168.432 38.4661C169.643 38.4661 170.21 38.7266 170.945 39.0697C170.73 40.7333 169.261 41.9119 167.669 41.9119V41.9119ZM183.274 32.4602L180.114 40.2482H180.02L176.753 32.4602H173.789L178.697 43.3437L175.897 49.3999H178.769L186.333 32.4602H183.274V32.4602ZM158.493 43.9546H161.25V25.9889H158.493V43.9546Z" fill="white"/>
</svg>
