<svg xmlns="http://www.w3.org/2000/svg" width="111" height="111" fill="none">
  <mask id="A" x="0" y="0" width="111" height="111">
    <path
      d="M.093 44.982c0-15.642 0-23.463 3.044-29.438A27.93 27.93 0 0 1 15.343 3.339C21.317.294 29.138.294 44.78.294h20.625c15.642 0 23.463 0 29.438 3.044 5.255 2.678 9.528 6.95 12.206 12.206 3.044 5.974 3.044 13.796 3.044 29.438v20.625c0 15.642 0 23.463-3.044 29.438a27.93 27.93 0 0 1-12.206 12.206c-5.975 3.044-13.796 3.044-29.438 3.044H44.78c-15.642 0-23.463 0-29.438-3.044-5.255-2.677-9.528-6.95-12.206-12.205C.093 89.07.093 81.249.093 65.607V44.982z"
      fill="#ffffff"/>
  </mask>
  <g mask="url(#A)">
    <path d="M.093.294h110v110h-110v-110z" fill="url(#B)"/>
    <path fill-rule="evenodd"
          d="M52.144 33.53c1.115 0 2.019.885 2.019 1.976v27.866a1.96 1.96 0 0 1-.753 1.539L39.622 75.765a2.05 2.05 0 0 1-2.823-.284l-4.522-5.374c-.717-.851-.582-2.112.299-2.8l9.892-7.725a1.97 1.97 0 0 0 .701-1.07l5.928-23.481c.223-.882 1.031-1.502 1.96-1.502h1.088zm5.897-.002c-1.115 0-2.019.885-2.019 1.976V63.37a1.96 1.96 0 0 0 .753 1.539l13.788 10.854a2.05 2.05 0 0 0 2.823-.283l4.522-5.374c.716-.851.582-2.112-.299-2.8l-9.892-7.725a1.97 1.97 0 0 1-.701-1.07L61.088 35.03c-.223-.882-1.031-1.502-1.96-1.502H58.04zm-2.948 60.425c21.054 0 38.122-17.068 38.122-38.122S76.147 17.71 55.093 17.71 16.971 34.777 16.971 55.831s17.068 38.122 38.122 38.122zm0 4.297c23.427 0 42.419-18.991 42.419-42.418S78.52 13.413 55.093 13.413 12.674 32.404 12.674 55.831 31.666 98.25 55.093 98.25z"
          fill="#fff"/>
  </g>
  <defs>
    <linearGradient id="B" x1="97.922" y1="8.971" x2="7.292" y2="99.943" gradientUnits="userSpaceOnUse">
      <stop stop-color="#c955ff"/>
      <stop offset="1" stop-color="#3a59f5"/>
    </linearGradient>
  </defs>
</svg>
