<svg width="111" height="111" viewBox="0 0 111 111" fill="none" xmlns="http://www.w3.org/2000/svg">
<mask id="mask0_57_135" style="mask-type:alpha" maskUnits="userSpaceOnUse" x="0" y="0" width="111" height="111">
<path d="M0.0927734 44.9819C0.0927734 29.3398 0.0927734 21.5187 3.13693 15.5442C5.81464 10.2889 10.0873 6.01624 15.3426 3.33853C21.3171 0.294373 29.1382 0.294373 44.7803 0.294373H65.4053C81.0474 0.294373 88.8684 0.294373 94.8429 3.33853C100.098 6.01624 104.371 10.2889 107.049 15.5442C110.093 21.5187 110.093 29.3398 110.093 44.9819V65.6069C110.093 81.249 110.093 89.07 107.049 95.0445C104.371 100.3 100.098 104.573 94.8429 107.25C88.8684 110.294 81.0474 110.294 65.4053 110.294H44.7803C29.1382 110.294 21.3171 110.294 15.3426 107.25C10.0873 104.573 5.81464 100.3 3.13693 95.0445C0.0927734 89.07 0.0927734 81.249 0.0927734 65.6069V44.9819Z" fill="#5A5A5A"/>
</mask>
<g mask="url(#mask0_57_135)">
<path d="M0.0927734 0.294373H110.093V110.294H0.0927734V0.294373Z" fill="url(#paint0_linear_57_135)"/>
<path fill-rule="evenodd" clip-rule="evenodd" d="M52.1444 33.5295C53.2592 33.5295 54.1629 34.414 54.1629 35.505V63.3715C54.1629 63.9698 53.8859 64.5358 53.4096 64.9108L39.6219 75.7649C38.7603 76.4432 37.5015 76.3168 36.7985 75.4814L32.2766 70.1077C31.5601 69.2563 31.6948 67.9956 32.5758 67.3077L42.4681 59.5828C42.8158 59.3113 43.0621 58.935 43.1687 58.5124L49.0968 35.0312C49.3195 34.1492 50.1281 33.5295 51.0565 33.5295H52.1444Z" fill="white"/>
<path fill-rule="evenodd" clip-rule="evenodd" d="M58.0408 33.5276C56.926 33.5276 56.0222 34.4121 56.0222 35.5031V63.3696C56.0222 63.9679 56.2993 64.5339 56.7756 64.9089L70.5633 75.7629C71.4249 76.4412 72.6837 76.3149 73.3867 75.4795L77.9086 70.1058C78.6251 69.2544 78.4904 67.9937 77.6094 67.3058L67.7171 59.5808C67.3694 59.3093 67.1231 58.9331 67.0165 58.5105L61.0884 35.0293C60.8657 34.1473 60.0571 33.5276 59.1287 33.5276H58.0408Z" fill="white"/>
<path fill-rule="evenodd" clip-rule="evenodd" d="M55.0928 93.953C76.1469 93.953 93.2146 76.8853 93.2146 55.8313C93.2146 34.7772 76.1469 17.7095 55.0928 17.7095C34.0388 17.7095 16.9711 34.7772 16.9711 55.8313C16.9711 76.8853 34.0388 93.953 55.0928 93.953ZM55.0928 98.2498C78.52 98.2498 97.5114 79.2584 97.5114 55.8313C97.5114 32.4041 78.52 13.4127 55.0928 13.4127C31.6657 13.4127 12.6743 32.4041 12.6743 55.8313C12.6743 79.2584 31.6657 98.2498 55.0928 98.2498Z" fill="white"/>
</g>
<defs>
<linearGradient id="paint0_linear_57_135" x1="97.9217" y1="8.97093" x2="7.29168" y2="99.943" gradientUnits="userSpaceOnUse">
<stop stop-color="#C955FF"/>
<stop offset="1" stop-color="#3A59F5"/>
</linearGradient>
</defs>
</svg>
