<svg width="25" height="24" viewBox="0 0 25 24" fill="none" xmlns="http://www.w3.org/2000/svg">
<path d="M8.66952 11.5688C8.66952 9.44074 10.3942 7.71514 12.5224 7.71514C14.6505 7.71514 16.3762 9.44074 16.3762 11.5688C16.3762 13.6968 14.6505 15.4224 12.5224 15.4224C10.3942 15.4224 8.66952 13.6968 8.66952 11.5688ZM6.5862 11.5688C6.5862 14.8472 9.2438 17.5047 12.5224 17.5047C15.801 17.5047 18.4586 14.8472 18.4586 11.5688C18.4586 8.29034 15.801 5.63285 12.5224 5.63285C9.2438 5.63285 6.5862 8.29034 6.5862 11.5688ZM17.3062 5.39754C17.3062 6.16323 17.9272 6.78512 18.6939 6.78512C19.4596 6.78512 20.0815 6.16323 20.0815 5.39754C20.0815 4.63186 19.4605 4.0109 18.6939 4.0109C17.9272 4.0109 17.3062 4.63186 17.3062 5.39754ZM7.8515 20.9783C6.72441 20.927 6.11183 20.7393 5.70469 20.5805C5.16496 20.3705 4.78023 20.1202 4.37496 19.7159C3.97062 19.3116 3.71943 18.9268 3.51026 18.3871C3.35151 17.98 3.16382 17.3675 3.11246 16.2404C3.05643 15.0218 3.04523 14.6558 3.04523 11.5688C3.04523 8.48176 3.05737 8.11666 3.11246 6.89717C3.16382 5.77011 3.35245 5.1585 3.51026 4.75044C3.72036 4.21073 3.97062 3.82602 4.37496 3.42076C4.7793 3.01644 5.16402 2.76526 5.70469 2.5561C6.11183 2.39736 6.72441 2.20967 7.8515 2.15831C9.07012 2.10229 9.43617 2.09108 12.5224 2.09108C15.6095 2.09108 15.9746 2.10322 17.1942 2.15831C18.3213 2.20967 18.9329 2.39829 19.341 2.5561C19.8807 2.76526 20.2655 3.01644 20.6707 3.42076C21.0751 3.82508 21.3253 4.21073 21.5354 4.75044C21.6942 5.15756 21.8819 5.77011 21.9332 6.89717C21.9893 8.11666 22.0005 8.48176 22.0005 11.5688C22.0005 14.6549 21.9893 15.0209 21.9332 16.2404C21.8819 17.3675 21.6933 17.98 21.5354 18.3871C21.3253 18.9268 21.0751 19.3116 20.6707 19.7159C20.2664 20.1202 19.8807 20.3705 19.341 20.5805C18.9339 20.7393 18.3213 20.927 17.1942 20.9783C15.9756 21.0344 15.6095 21.0456 12.5224 21.0456C9.43617 21.0456 9.07012 21.0344 7.8515 20.9783V20.9783ZM7.75626 0.0788214C6.52551 0.134847 5.68508 0.330004 4.95018 0.615736C4.19007 0.910805 3.54574 1.30672 2.90235 1.94915C2.2599 2.59158 1.86397 3.23588 1.56889 3.9969C1.28314 4.73177 1.08798 5.57216 1.03195 6.80286C0.974987 8.03543 0.961914 8.42947 0.961914 11.5688C0.961914 14.7081 0.974987 15.1022 1.03195 16.3347C1.08798 17.5654 1.28314 18.4058 1.56889 19.1407C1.86397 19.9008 2.25896 20.546 2.90235 21.1884C3.54481 21.8309 4.18913 22.2258 4.95018 22.5218C5.68602 22.8076 6.52551 23.0027 7.75626 23.0588C8.98981 23.1148 9.38294 23.1288 12.5224 23.1288C15.6628 23.1288 16.0559 23.1157 17.2885 23.0588C18.5193 23.0027 19.3597 22.8076 20.0946 22.5218C20.8547 22.2258 21.499 21.8309 22.1424 21.1884C22.7849 20.546 23.1799 19.9008 23.4759 19.1407C23.7616 18.4058 23.9577 17.5654 24.0128 16.3347C24.0688 15.1012 24.0819 14.7081 24.0819 11.5688C24.0819 8.42947 24.0688 8.03543 24.0128 6.80286C23.9568 5.57216 23.7616 4.73177 23.4759 3.9969C23.1799 3.23681 22.7849 2.59251 22.1424 1.94915C21.5 1.30672 20.8547 0.910805 20.0955 0.615736C19.3597 0.330004 18.5193 0.133913 17.2894 0.0788214C16.0568 0.0227955 15.6628 0.00878906 12.5233 0.00878906C9.38294 0.00878906 8.98981 0.0218618 7.75626 0.0788214" fill="white"/>
</svg>
