<svg width="700" height="132" viewBox="0 0 700 132" fill="none" xmlns="http://www.w3.org/2000/svg">
  <g filter="url(#filter0_d_6761_4847)">
    <path d="M12.1615 115.648V103.132L22.1889 100.998V23.7657L11.0947 21.6322V9.11569H41.2481L42.2437 18.0764C44.5195 14.7576 47.2693 12.1974 50.4932 10.3958C53.7172 8.59417 57.5575 7.69336 62.0141 7.69336C68.2249 7.69336 73.5349 9.40016 77.9442 12.8137C82.3534 16.1799 85.7196 20.8973 88.0427 26.9659C90.4132 33.0345 91.5985 40.1224 91.5985 48.2297V49.7232C91.5985 57.3089 90.4132 63.9465 88.0427 69.6358C85.6721 75.2777 82.2586 79.6869 77.8019 82.8634C73.3927 85.9925 68.0827 87.5571 61.8719 87.5571C53.7646 87.5571 47.4352 84.6176 42.8838 78.7387V100.998L52.9112 103.132V115.648H12.1615ZM55.6847 71.627C60.9947 71.627 64.835 69.6595 67.2056 65.7244C69.6235 61.7893 70.8325 56.4555 70.8325 49.7232V48.2297C70.8325 40.9758 69.5998 35.0969 67.1345 30.5928C64.6691 26.0888 60.8051 23.8368 55.5425 23.8368C49.7584 23.8368 45.5388 26.3022 42.8838 31.2329V64.9421C45.4914 69.3987 49.7584 71.627 55.6847 71.627Z" fill="white"/>
    <path d="M102.408 86.0637V73.6183L112.365 71.4848V23.7657L101.341 21.6322V9.11569H131.708L132.49 18.6453L132.633 20.3521C136.426 11.9129 142.115 7.69336 149.701 7.69336C150.933 7.69336 152.261 7.78818 153.683 7.97783C155.153 8.16747 156.48 8.45193 157.666 8.83122L155.461 27.9615L145.149 27.3926C142.21 27.2504 139.815 27.7482 137.966 28.8861C136.165 30.0239 134.553 31.6596 133.13 33.7931V71.4848L143.087 73.6183V86.0637H102.408Z" fill="white"/>
    <path d="M188.175 87.5571C180.541 87.5571 174.473 85.5184 169.969 81.4411C165.465 77.3163 163.213 71.7218 163.213 64.6576C163.213 57.4512 166.129 51.5722 171.96 47.0207C177.839 42.4693 186.468 40.1936 197.846 40.1936H208.016V34.5042C208.016 30.8062 206.926 27.8193 204.745 25.5436C202.611 23.2204 199.387 22.0589 195.073 22.0589C192.845 22.0589 190.83 22.3433 189.028 22.9123C187.274 23.4338 185.686 24.1924 184.263 25.188L182.628 35.3577H167.693L167.409 15.3739C171.439 13.0982 175.8 11.2492 180.494 9.82685C185.188 8.40452 190.427 7.69336 196.211 7.69336C206.262 7.69336 214.203 10.0402 220.035 14.7339C225.866 19.4276 228.782 26.0888 228.782 34.7176V66.4355C228.782 67.4786 228.782 68.4979 228.782 69.4935C228.83 70.4892 228.924 71.4848 229.067 72.4804L237.103 73.6183V86.0637H211.359C210.837 84.7362 210.316 83.3138 209.794 81.7967C209.272 80.2795 208.893 78.7624 208.656 77.2452C206.191 80.3743 203.275 82.8871 199.909 84.7836C196.59 86.6326 192.679 87.5571 188.175 87.5571ZM193.722 72.196C196.614 72.196 199.34 71.5559 201.9 70.2758C204.508 68.9483 206.546 67.2178 208.016 65.0843V52.9234H197.775C193.224 52.9234 189.763 53.9664 187.392 56.0525C185.069 58.1386 183.908 60.6514 183.908 63.5909C183.908 66.3407 184.761 68.4742 186.468 69.9913C188.222 71.4611 190.64 72.196 193.722 72.196Z" fill="white"/>
    <path d="M262.562 117.142C260.808 117.142 258.912 116.976 256.873 116.644C254.834 116.359 252.914 115.956 251.113 115.435L253.46 100.216C254.36 100.405 255.356 100.548 256.446 100.643C257.537 100.737 258.485 100.785 259.291 100.785C265.549 100.785 269.721 97.7505 271.808 91.6819L273.514 86.9171L247.77 22.9834L238.312 21.6322V9.11569H279.133V21.6322L269.745 23.0545L281.835 56.977L283.328 61.1729H283.755L298.049 22.9123L288.875 21.6322V9.11569H326.923V21.6322L318.247 22.8412L288.875 97.5134C287.453 101.069 285.628 104.341 283.4 107.327C281.219 110.314 278.421 112.685 275.008 114.439C271.642 116.241 267.493 117.142 262.562 117.142Z" fill="white"/>
    <path d="M334.248 86.0637V73.6183L344.204 71.4848V23.7657L333.181 21.6322V9.11569H363.548L364.33 18.6453L364.472 20.3521C368.265 11.9129 373.954 7.69336 381.54 7.69336C382.773 7.69336 384.1 7.78818 385.523 7.97783C386.992 8.16747 388.32 8.45193 389.505 8.83122L387.301 27.9615L376.989 27.3926C374.049 27.2504 371.655 27.7482 369.806 28.8861C368.004 30.0239 366.392 31.6596 364.97 33.7931V71.4848L374.926 73.6183V86.0637H334.248Z" fill="white"/>
    <path d="M430.966 87.5571C423.333 87.5571 416.79 85.8977 411.338 82.579C405.933 79.2602 401.785 74.6613 398.893 68.7824C396.001 62.856 394.554 56.0525 394.554 48.372V46.8785C394.554 39.2453 396.001 32.4893 398.893 26.6103C401.785 20.684 405.933 16.0614 411.338 12.7426C416.79 9.37645 423.286 7.69336 430.824 7.69336C438.41 7.69336 444.905 9.35274 450.31 12.6715C455.762 15.9903 459.934 20.6128 462.826 26.5392C465.718 32.4182 467.164 39.1979 467.164 46.8785V48.372C467.164 56.0525 465.718 62.856 462.826 68.7824C459.934 74.6613 455.786 79.2602 450.381 82.579C444.976 85.8977 438.504 87.5571 430.966 87.5571ZM430.966 71.627C436.324 71.627 440.235 69.4935 442.7 65.2265C445.213 60.9596 446.469 55.3414 446.469 48.372V46.8785C446.469 40.0513 445.213 34.4805 442.7 30.1662C440.188 25.8518 436.229 23.6946 430.824 23.6946C425.419 23.6946 421.484 25.8518 419.018 30.1662C416.553 34.4805 415.32 40.0513 415.32 46.8785V48.372C415.32 55.3888 416.553 61.0307 419.018 65.2977C421.484 69.5172 425.466 71.627 430.966 71.627Z" fill="white"/>
    <path d="M514.03 87.5571C506.397 87.5571 499.854 85.8977 494.402 82.579C488.997 79.2602 484.849 74.6613 481.957 68.7824C479.064 62.856 477.618 56.0525 477.618 48.372V46.8785C477.618 39.2453 479.064 32.4893 481.957 26.6103C484.849 20.684 488.997 16.0614 494.402 12.7426C499.854 9.37645 506.349 7.69336 513.888 7.69336C521.474 7.69336 527.969 9.35274 533.374 12.6715C538.826 15.9903 542.998 20.6128 545.89 26.5392C548.782 32.4182 550.228 39.1979 550.228 46.8785V48.372C550.228 56.0525 548.782 62.856 545.89 68.7824C542.998 74.6613 538.85 79.2602 533.445 82.579C528.04 85.8977 521.568 87.5571 514.03 87.5571ZM514.03 71.627C519.387 71.627 523.299 69.4935 525.764 65.2265C528.277 60.9596 529.533 55.3414 529.533 48.372V46.8785C529.533 40.0513 528.277 34.4805 525.764 30.1662C523.252 25.8518 519.293 23.6946 513.888 23.6946C508.483 23.6946 504.548 25.8518 502.082 30.1662C499.617 34.4805 498.384 40.0513 498.384 46.8785V48.372C498.384 55.3888 499.617 61.0307 502.082 65.2977C504.548 69.5172 508.53 71.627 514.03 71.627Z" fill="white"/>
    <path d="M558.762 86.0637V73.6183L568.79 71.4848V23.7657L557.696 21.6322V9.11569H588.062L588.916 19.2853C591.381 15.5873 594.463 12.7426 598.161 10.7514C601.906 8.71269 606.221 7.69336 611.104 7.69336C616.035 7.69336 620.254 8.78381 623.763 10.9647C627.271 13.1456 629.926 16.4407 631.728 20.8499C634.098 16.7251 637.18 13.5012 640.973 11.1781C644.766 8.85493 649.222 7.69336 654.343 7.69336C661.929 7.69336 667.902 10.2773 672.264 15.445C676.673 20.6128 678.878 28.4831 678.878 39.0557V71.4848L688.905 73.6183V86.0637H649.151V73.6183L658.112 71.4848V38.9846C658.112 33.3427 657.164 29.4076 655.267 27.1793C653.418 24.9509 650.716 23.8368 647.16 23.8368C643.936 23.8368 641.21 24.7613 638.982 26.6103C636.753 28.4119 635.141 30.8062 634.146 33.7931V71.4848L642.537 73.6183V86.0637H605.059V73.6183L613.451 71.4848V38.9846C613.451 33.4375 612.503 29.5261 610.606 27.2504C608.757 24.9746 606.007 23.8368 602.357 23.8368C596.62 23.8368 592.329 26.1362 589.485 30.7351V71.4848L598.445 73.6183V86.0637H558.762Z" fill="white"/>
  </g>
  <defs>
    <filter id="filter0_d_6761_4847" x="0.444727" y="0.902825" width="699.111" height="130.748" filterUnits="userSpaceOnUse" color-interpolation-filters="sRGB">
      <feFlood flood-opacity="0" result="BackgroundImageFix"/>
      <feColorMatrix in="SourceAlpha" type="matrix" values="0 0 0 0 0 0 0 0 0 0 0 0 0 0 0 0 0 0 127 0" result="hardAlpha"/>
      <feOffset dy="3.85947"/>
      <feGaussianBlur stdDeviation="5.325"/>
      <feComposite in2="hardAlpha" operator="out"/>
      <feColorMatrix type="matrix" values="0 0 0 0 0 0 0 0 0 0 0 0 0 0 0 0 0 0 0.14 0"/>
      <feBlend mode="normal" in2="BackgroundImageFix" result="effect1_dropShadow_6761_4847"/>
      <feBlend mode="normal" in="SourceGraphic" in2="effect1_dropShadow_6761_4847" result="shape"/>
    </filter>
  </defs>
</svg>
