<svg xmlns="http://www.w3.org/2000/svg" width="700" height="132" fill="#fff">
  <path
    d="M12.162 115.648v-12.516l10.027-2.134V23.766l-11.094-2.133V9.116h30.153l.996 8.961c2.276-3.319 5.026-5.879 8.25-7.681s7.064-2.702 11.521-2.702c6.211 0 11.521 1.707 15.93 5.12 4.409 3.366 7.775 8.084 10.099 14.152C90.415 33.035 91.6 40.122 91.6 48.23v1.493c0 7.586-1.185 14.223-3.556 19.913-2.371 5.642-5.784 10.051-10.241 13.228-4.409 3.129-9.719 4.694-15.93 4.694-8.107 0-14.437-2.94-18.988-8.818v22.259l10.027 2.134v12.516h-40.75zm43.523-44.021c5.31 0 9.15-1.968 11.521-5.903 2.418-3.935 3.627-9.269 3.627-16.001V48.23c0-7.254-1.233-13.133-3.698-17.637s-6.329-6.756-11.592-6.756c-5.784 0-10.004 2.465-12.659 7.396v33.709c2.608 4.457 6.875 6.685 12.801 6.685zm46.723 14.437V73.618l9.957-2.133V23.766l-11.024-2.133V9.116h30.367l.782 9.53.143 1.707c3.793-8.439 9.482-12.659 17.068-12.659 1.232 0 2.56.095 3.982.284 1.47.19 2.797.474 3.983.853l-2.205 19.13-10.312-.569c-2.939-.142-5.334.356-7.183 1.493-1.801 1.138-3.413 2.774-4.836 4.907v37.692l9.957 2.133v12.445h-40.679zm85.767 1.493c-7.634 0-13.702-2.039-18.206-6.116-4.504-4.125-6.756-9.719-6.756-16.784 0-7.206 2.916-13.085 8.747-17.637 5.879-4.551 14.508-6.827 25.886-6.827h10.17v-5.689c0-3.698-1.09-6.685-3.271-8.961-2.134-2.323-5.358-3.485-9.672-3.485-2.228 0-4.243.284-6.045.853a16.4 16.4 0 0 0-4.765 2.276l-1.635 10.17h-14.935l-.284-19.984c4.03-2.276 8.391-4.125 13.085-5.547s9.933-2.133 15.717-2.133c10.051 0 17.992 2.347 23.824 7.041s8.747 11.355 8.747 19.984v31.718 3.058a31.75 31.75 0 0 0 .285 2.987l8.036 1.138v12.445h-25.744c-.522-1.328-1.043-2.75-1.565-4.267s-.901-3.034-1.138-4.552c-2.465 3.129-5.381 5.642-8.747 7.538-3.319 1.849-7.23 2.773-11.734 2.773zm5.547-15.361a18.04 18.04 0 0 0 8.178-1.92c2.608-1.328 4.646-3.058 6.116-5.192V52.923h-10.241c-4.551 0-8.012 1.043-10.383 3.129-2.323 2.086-3.484 4.599-3.484 7.538 0 2.75.853 4.883 2.56 6.4 1.754 1.47 4.172 2.205 7.254 2.205zm68.84 44.946c-1.754 0-3.65-.166-5.689-.498-2.039-.285-3.959-.688-5.76-1.209l2.347-15.219a25.26 25.26 0 0 0 2.986.427l2.845.142c6.258 0 10.43-3.034 12.517-9.103l1.706-4.765-25.744-63.934-9.458-1.351V9.116h40.821v12.517l-9.388 1.422 12.09 33.923 1.493 4.196h.427l14.294-38.261-9.174-1.28V9.116h38.048v12.517l-8.676 1.209-29.372 74.672c-1.422 3.556-3.247 6.828-5.475 9.814-2.181 2.987-4.979 5.358-8.392 7.112-3.366 1.802-7.515 2.703-12.446 2.703zm71.686-31.078V73.618l9.956-2.133V23.766l-11.023-2.133V9.116h30.367l.782 9.53.142 1.707c3.793-8.439 9.482-12.659 17.068-12.659 1.233 0 2.56.095 3.983.284 1.469.19 2.797.474 3.982.853l-2.204 19.13-10.312-.569c-2.94-.142-5.334.356-7.183 1.493-1.802 1.138-3.414 2.774-4.836 4.907v37.692l9.956 2.133v12.445h-40.678zm96.718 1.493c-7.633 0-14.176-1.659-19.628-4.978-5.405-3.319-9.553-7.918-12.445-13.797-2.892-5.926-4.339-12.73-4.339-20.41v-1.493c0-7.633 1.447-14.389 4.339-20.268 2.892-5.926 7.04-10.549 12.445-13.868 5.452-3.366 11.948-5.049 19.486-5.049 7.586 0 14.081 1.659 19.486 4.978 5.452 3.319 9.624 7.941 12.516 13.868 2.892 5.879 4.338 12.659 4.338 20.339v1.493c0 7.681-1.446 14.484-4.338 20.41-2.892 5.879-7.04 10.478-12.445 13.797s-11.877 4.978-19.415 4.978zm0-15.93c5.358 0 9.269-2.133 11.734-6.4 2.513-4.267 3.769-9.885 3.769-16.854V46.88c0-6.827-1.256-12.398-3.769-16.712s-6.471-6.472-11.876-6.472-9.34 2.157-11.806 6.472-3.698 9.885-3.698 16.712v1.493c0 7.017 1.233 12.659 3.698 16.926 2.466 4.219 6.448 6.329 11.948 6.329zm83.064 15.93c-7.633 0-14.176-1.659-19.628-4.978-5.405-3.319-9.553-7.918-12.445-13.797-2.893-5.926-4.339-12.73-4.339-20.41v-1.493c0-7.633 1.446-14.389 4.339-20.268 2.892-5.926 7.04-10.549 12.445-13.868 5.452-3.366 11.947-5.049 19.486-5.049 7.586 0 14.081 1.659 19.486 4.978 5.452 3.319 9.624 7.941 12.516 13.868 2.892 5.879 4.338 12.659 4.338 20.339v1.493c0 7.681-1.446 14.484-4.338 20.41-2.892 5.879-7.04 10.478-12.445 13.797s-11.877 4.978-19.415 4.978zm0-15.93c5.357 0 9.269-2.133 11.734-6.4 2.513-4.267 3.769-9.885 3.769-16.854V46.88c0-6.827-1.256-12.398-3.769-16.712s-6.471-6.472-11.876-6.472-9.34 2.157-11.806 6.472-3.698 9.885-3.698 16.712v1.493c0 7.017 1.233 12.659 3.698 16.926 2.466 4.219 6.448 6.329 11.948 6.329zm44.732 14.437V73.618l10.028-2.133V23.766l-11.094-2.133V9.116h30.366l.854 10.17c2.465-3.698 5.547-6.543 9.245-8.534 3.745-2.039 8.06-3.058 12.943-3.058 4.931 0 9.15 1.09 12.659 3.271s6.163 5.476 7.965 9.885c2.37-4.125 5.452-7.349 9.245-9.672s8.249-3.485 13.37-3.485c7.586 0 13.559 2.584 17.921 7.752 4.409 5.168 6.614 13.038 6.614 23.611v32.429l10.027 2.133v12.445h-39.754V73.618l8.961-2.133v-32.5c0-5.642-.948-9.577-2.845-11.805-1.849-2.228-4.551-3.343-8.107-3.343-3.224 0-5.95.924-8.178 2.773-2.229 1.802-3.841 4.196-4.836 7.183v37.692l8.391 2.133v12.445h-37.478V73.618l8.392-2.133v-32.5c0-5.547-.948-9.458-2.845-11.734-1.849-2.276-4.599-3.414-8.249-3.414-5.737 0-10.028 2.299-12.872 6.898v40.75l8.96 2.133v12.445h-39.683z"/>
</svg>
