<svg width="131" height="131" viewBox="0 0 131 131" fill="none" xmlns="http://www.w3.org/2000/svg">
<path d="M78.6023 119.74H73.3479L73.4 119.799V98.9008H83.6781V88.526H78.5577V83.3163H83.8865V78.0321H104.517V72.8968H73.3479V67.7838H68.1829V72.8968H62.9731V83.3163H57.7187L57.7783 83.3684C57.7783 78.1437 57.7584 72.9166 57.7187 67.6871H63.0401V62.4773H68.0564V57.4462H57.7634V67.6871H52.5537V72.7628H47.4556V52.0579H52.509V26.0836H57.8006V20.7548L57.7187 20.7995H63.0178V15.493H68.1903V10.3279L68.1382 10.38H73.4V5.11816L73.3479 5.17027H78.5577V10.2907H83.6632V15.5004H78.6916V20.6729H83.6856V25.8827H78.6693V36.2352H73.4596V26.1283H63.0401C63.0401 27.8103 63.0401 29.5146 63.0401 31.2264H57.9197V41.4895H62.9285V31.1743H68.1382V46.8035H73.3033V57.2676H83.8418H83.7674V62.5741H78.7363V67.6275H89.0367V62.4178H94.2464V57.2081L94.1869 57.2676H104.658H104.606V62.4773H109.868H109.816V83.2195H125.505V78.1065H125.445H130.551V104.155H125.445V98.8338H114.951V88.6153H109.95V104.244H115.16V109.29H120.325V104.155H125.535V109.365H130.603V114.523H125.535V119.732H120.429V124.942H130.603V130.04H89.1409V125.069H94.0678V114.694H78.5577V119.784L78.6023 119.74ZM89.0664 103.999H104.539V88.6302H89.0664V103.999ZM99.4859 124.838H104.48V109.439H99.4859V124.838ZM109.905 114.604V124.853H114.914V114.634L109.905 114.604ZM57.8676 46.8779V51.9313H62.7871V46.8481L57.8676 46.8779ZM125.304 93.6687V88.6227H120.355V93.6687H125.304ZM78.6247 109.216H83.6707V104.267H78.6247V109.216Z" fill="#9A978D"/>
<path d="M36.8154 0.0864258V36.3015H0.585449V0.0864258H36.8154ZM31.561 31.129V5.29616H5.7282V31.129H31.561Z" fill="#9A978D"/>
<path d="M130.603 0.0864258V36.3015H94.3735V0.0864258H130.603ZM125.349 31.129V5.29616H99.5163V31.129H125.349Z" fill="#9A978D"/>
<path d="M36.7547 130.107H0.532227V93.8843H36.7547V130.107ZM5.71218 124.86H31.545V99.027H5.71218V124.86Z" fill="#9A978D"/>
<path d="M73.3499 119.784V124.994H68.2146V130.107H52.5854V114.708H47.3384V130.085H42.2329V109.447H47.2045V98.9453H52.5333H52.511V109.462H57.8323V119.784H73.402H73.3499Z" fill="#9A978D"/>
<path d="M57.7718 20.7545H47.3523V25.8749H42.1426V10.4467H47.2928V5.16997H47.3002H52.5099V0.034668H57.675V5.02112H62.8847V0.079321H73.3489V5.16997L73.401 5.11043H68.1391V10.3797L68.1912 10.3276H57.7197V20.7992L57.7718 20.7545Z" fill="#9A978D"/>
<path d="M10.868 78.1057L5.60617 78.0387L5.6657 78.0983V62.4765H0.522949V57.3784H10.7638V62.3723H21.1312V88.421H10.8308V78.1057H15.9512V67.8351H10.8829L10.868 78.1057Z" fill="#9A978D"/>
<path d="M36.8796 78.1064H47.2991V88.3994H52.5088V83.3162H57.8376H57.7185V98.9454L57.7706 98.8858H52.5088L52.5609 98.9454V93.7356H42.1414V88.5259H26.5718V83.3906H36.9317V78.1064H36.8796Z" fill="#9A978D"/>
<path d="M83.8216 57.2676V46.8481H78.7012V41.6905H83.7695V31.271H88.9792V41.5044H94.189V57.2676L94.2411 57.208H83.7695L83.8216 57.2676Z" fill="#9A978D"/>
<path d="M21.2511 41.7715V46.743H26.3492V51.9528H21.3404V57.103H16.1307V46.8472H0.501465V41.7417L21.2511 41.7715Z" fill="#9A978D"/>
<path d="M109.817 57.2676H120.236V62.3806H130.552V72.8H125.446L125.506 72.8596V67.568H115.027V62.3582H109.817L109.869 62.4103V57.2676H109.817Z" fill="#9A978D"/>
<path d="M26.6396 62.4771H41.9488V67.5156H26.6396V62.4771Z" fill="#9A978D"/>
<path d="M104.741 46.9151V41.7798H120.296V46.7886L120.348 46.729L104.674 46.863L104.741 46.9151Z" fill="#9A978D"/>
<path d="M42.0893 46.8481V57.156H31.7964V52.1323H36.9317V46.8481H36.8796H42.1265H42.0893Z" fill="#9A978D"/>
<path d="M125.445 72.8516V78.1059L125.505 78.0464H115.197V72.8962H125.505L125.445 72.8516Z" fill="#9A978D"/>
<path d="M5.62229 78.0542V83.1597H0.568848V78.1063H5.68182L5.62229 78.0542Z" fill="#9A978D"/>
<path d="M36.9322 78.1067H31.8267V73.0532H36.8801V78.1067H36.9322Z" fill="#9A978D"/>
<path d="M125.514 46.8472V41.7417H130.59V46.7877H125.447L125.514 46.8472Z" fill="#9A978D"/>
<path d="M42.128 46.8472V41.7417H47.1889V46.8472H42.0908H42.128Z" fill="#9A978D"/>
<path d="M36.9322 46.8479H31.8267V41.7944H36.8801V46.8479H36.9322Z" fill="#9A978D"/>
<path d="M104.719 51.9381H99.5098V46.9144H104.719L104.66 46.8623C104.66 48.5741 104.66 50.2859 104.66 51.9976L104.719 51.9381Z" fill="#9A978D"/>
<path d="M47.2319 31.3003V36.2793H42.2231V31.3003H47.2319Z" fill="#9A978D"/>
<path d="M125.446 46.7958V51.9163H120.341V46.7065L120.289 46.7661L125.498 46.8331L125.446 46.7958Z" fill="#9A978D"/>
<path d="M83.895 0.034668H88.8666V5.02856H83.895V0.034668Z" fill="#9A978D"/>
<path d="M47.352 5.16928H42.2539V0.108398H47.2999V5.16928H47.352Z" fill="#9A978D"/>
<path d="M104.659 57.2672C104.659 55.481 104.696 53.7022 104.719 51.916L104.666 51.9756H109.817V57.2672L109.869 57.2076H104.607L104.659 57.2672Z" fill="#9A978D"/>
<path d="M78.5586 119.785H83.6641V124.838H78.6181V119.725L78.5586 119.785Z" fill="#9A978D"/>
<path d="M125.329 93.6607H120.379V88.6147H125.329V93.6607Z" fill="#9A978D"/>
<path d="M73.3909 83.3154V88.5252H78.6006V93.6307H68.2258V88.5996H62.9268V83.3154H73.3909Z" fill="#9A978D"/>
<path d="M57.7192 98.9448H62.8173V103.998H57.7713V98.8853L57.7192 98.9448Z" fill="#9A978D"/>
<path d="M94.3442 93.8252H99.3233V98.7893H94.3442V93.8252Z" fill="#9A978D"/>
<path d="M68.1387 72.8965H73.4005V78.1062H68.1387V72.8965Z" fill="#9A978D"/>
<path d="M78.603 83.3162H73.3486V78.1064H78.6105L78.603 83.3162Z" fill="#9A978D"/>
<path d="M26.3338 25.9042H10.9502V10.5132H26.3338V25.9042Z" fill="#9A978D"/>
<path d="M104.732 10.4468H120.13V25.875H104.732V10.4468Z" fill="#9A978D"/>
<path d="M26.3866 104.282V119.673H10.9956V104.282H26.3866Z" fill="#9A978D"/>
</svg>
