<svg width="22" height="22" viewBox="0 0 22 22" fill="none" xmlns="http://www.w3.org/2000/svg">
<path d="M14.5532 14.3291H17.8602V17.6361H14.5532V14.3291Z" fill="white"/>
<path d="M11.9067 11.6841H14.5523V14.3297H11.9067V11.6841Z" fill="white"/>
<path d="M17.8599 17.6362H20.5054V20.2818H17.8599V17.6362Z" fill="white"/>
<path d="M18.521 11.6841H20.5052V13.6683H18.521V11.6841Z" fill="white"/>
<path d="M11.9067 18.2974H13.8909V20.2816H11.9067V18.2974Z" fill="white"/>
<path d="M14.5532 4.40918H17.8602V7.71616H14.5532V4.40918Z" fill="white"/>
<path d="M20.5049 10.3613H11.9067V1.76318H20.5049V10.3613ZM13.7256 8.5425H18.6861V3.58202H13.7256V8.5425Z" fill="white"/>
<path d="M4.63232 4.40918H7.93931V7.71616H4.63232V4.40918Z" fill="white"/>
<path d="M10.5845 10.3613H1.98633V1.76318H10.5845V10.3613ZM3.80517 8.5425H8.76564V3.58202H3.80517V8.5425Z" fill="white"/>
<path d="M4.63232 14.3291H7.93931V17.6361H4.63232V14.3291Z" fill="white"/>
<path d="M10.5845 20.2822H1.98633V11.6841H10.5845V20.2822ZM3.80517 18.4634H8.76564V13.5029H3.80517V18.4634Z" fill="white"/>
</svg>
